<?xml version="1.0" encoding="utf-8" standalone="no"?>
<!DOCTYPE svg PUBLIC "-//W3C//DTD SVG 1.1//EN"
  "http://www.w3.org/Graphics/SVG/1.1/DTD/svg11.dtd">
<svg height="720pt" version="1.1" viewBox="0 0 1440 720" width="1440pt" xmlns="http://www.w3.org/2000/svg" xmlns:xlink="http://www.w3.org/1999/xlink">
 <metadata>
  <rdf:RDF xmlns:cc="http://creativecommons.org/ns#" xmlns:dc="http://purl.org/dc/elements/1.1/" xmlns:rdf="http://www.w3.org/1999/02/22-rdf-syntax-ns#">
   <cc:Work>
    <dc:type rdf:resource="http://purl.org/dc/dcmitype/StillImage"/>
    <dc:date>2022-01-01T00:44:58.709343</dc:date>
    <dc:format>image/svg+xml</dc:format>
    <dc:creator>
     <cc:Agent>
      <dc:title>Matplotlib v3.4.3, https://matplotlib.org/</dc:title>
     </cc:Agent>
    </dc:creator>
   </cc:Work>
  </rdf:RDF>
 </metadata>
 <defs>
  <style type="text/css">*{stroke-linecap:butt;stroke-linejoin:round;}</style>
 </defs>
 <g id="figure_1">
  <g id="patch_1">
   <path d="M 0 720 
L 1440 720 
L 1440 0 
L 0 0 
z
" style="fill:#ffffff;"/>
  </g>
  <g id="axes_1">
   <g id="patch_2">
    <path clip-path="url(#p3156a13cd1)" d="M 738 277.45086 
L 941.103285 375.15 
L 738 475.146435 
L 621.9225 375.15 
z
" style="fill:#800080;"/>
   </g>
   <g id="patch_3">
    <path clip-path="url(#p3156a13cd1)" d="M 738 413.8425 
C 748.261371 413.8425 758.103844 409.765614 765.359729 402.509729 
C 772.615614 395.253844 776.6925 385.411371 776.6925 375.15 
C 776.6925 364.888629 772.615614 355.046156 765.359729 347.790271 
C 758.103844 340.534386 748.261371 336.4575 738 336.4575 
C 727.738629 336.4575 717.896156 340.534386 710.640271 347.790271 
C 703.384386 355.046156 699.3075 364.888629 699.3075 375.15 
C 699.3075 385.411371 703.384386 395.253844 710.640271 402.509729 
C 717.896156 409.765614 727.738629 413.8425 738 413.8425 
z
" style="fill:none;stroke:#b0c4de;stroke-linejoin:miter;stroke-width:20;"/>
   </g>
   <g id="patch_4">
    <path clip-path="url(#p3156a13cd1)" d="M 738 452.535 
C 758.522742 452.535 778.207688 444.381228 792.719458 429.869458 
C 807.231228 415.357688 815.385 395.672742 815.385 375.15 
C 815.385 354.627258 807.231228 334.942312 792.719458 320.430542 
C 778.207688 305.918772 758.522742 297.765 738 297.765 
C 717.477258 297.765 697.792312 305.918772 683.280542 320.430542 
C 668.768772 334.942312 660.615 354.627258 660.615 375.15 
C 660.615 395.672742 668.768772 415.357688 683.280542 429.869458 
C 697.792312 444.381228 717.477258 452.535 738 452.535 
z
" style="fill:none;stroke:#b0c4de;stroke-linejoin:miter;stroke-width:20;"/>
   </g>
   <g id="patch_5">
    <path clip-path="url(#p3156a13cd1)" d="M 738 491.2275 
C 768.784113 491.2275 798.311532 478.996842 820.079187 457.229187 
C 841.846842 435.461532 854.0775 405.934113 854.0775 375.15 
C 854.0775 344.365887 841.846842 314.838468 820.079187 293.070813 
C 798.311532 271.303158 768.784113 259.0725 738 259.0725 
C 707.215887 259.0725 677.688468 271.303158 655.920813 293.070813 
C 634.153158 314.838468 621.9225 344.365887 621.9225 375.15 
C 621.9225 405.934113 634.153158 435.461532 655.920813 457.229187 
C 677.688468 478.996842 707.215887 491.2275 738 491.2275 
z
" style="fill:none;stroke:#b0c4de;stroke-linejoin:miter;stroke-width:20;"/>
   </g>
   <g id="patch_6">
    <path clip-path="url(#p3156a13cd1)" d="M 738 529.92 
C 779.045484 529.92 818.415377 513.612456 847.438917 484.588917 
C 876.462456 455.565377 892.77 416.195484 892.77 375.15 
C 892.77 334.104516 876.462456 294.734623 847.438917 265.711083 
C 818.415377 236.687544 779.045484 220.38 738 220.38 
C 696.954516 220.38 657.584623 236.687544 628.561083 265.711083 
C 599.537544 294.734623 583.23 334.104516 583.23 375.15 
C 583.23 416.195484 599.537544 455.565377 628.561083 484.588917 
C 657.584623 513.612456 696.954516 529.92 738 529.92 
z
" style="fill:none;stroke:#b0c4de;stroke-linejoin:miter;stroke-width:20;"/>
   </g>
   <g id="patch_7">
    <path clip-path="url(#p3156a13cd1)" d="M 738 568.6125 
C 789.306855 568.6125 838.519221 548.228071 874.798646 511.948646 
C 911.078071 475.669221 931.4625 426.456855 931.4625 375.15 
C 931.4625 323.843145 911.078071 274.630779 874.798646 238.351354 
C 838.519221 202.071929 789.306855 181.6875 738 181.6875 
C 686.693145 181.6875 637.480779 202.071929 601.201354 238.351354 
C 564.921929 274.630779 544.5375 323.843145 544.5375 375.15 
C 544.5375 426.456855 564.921929 475.669221 601.201354 511.948646 
C 637.480779 548.228071 686.693145 568.6125 738 568.6125 
z
" style="fill:none;stroke:#b0c4de;stroke-linejoin:miter;stroke-width:20;"/>
   </g>
   <g id="patch_8">
    <path clip-path="url(#pe041fd6ae6)" d="M 738 413.8425 
C 748.261371 413.8425 758.103844 409.765614 765.359729 402.509729 
C 772.615614 395.253844 776.6925 385.411371 776.6925 375.15 
C 776.6925 364.888629 772.615614 355.046156 765.359729 347.790271 
C 758.103844 340.534386 748.261371 336.4575 738 336.4575 
C 727.738629 336.4575 717.896156 340.534386 710.640271 347.790271 
C 703.384386 355.046156 699.3075 364.888629 699.3075 375.15 
C 699.3075 385.411371 703.384386 395.253844 710.640271 402.509729 
C 717.896156 409.765614 727.738629 413.8425 738 413.8425 
z
" style="fill:none;stroke:#800080;stroke-linejoin:miter;stroke-width:20;"/>
   </g>
   <g id="patch_9">
    <path clip-path="url(#pe041fd6ae6)" d="M 738 452.535 
C 758.522742 452.535 778.207688 444.381228 792.719458 429.869458 
C 807.231228 415.357688 815.385 395.672742 815.385 375.15 
C 815.385 354.627258 807.231228 334.942312 792.719458 320.430542 
C 778.207688 305.918772 758.522742 297.765 738 297.765 
C 717.477258 297.765 697.792312 305.918772 683.280542 320.430542 
C 668.768772 334.942312 660.615 354.627258 660.615 375.15 
C 660.615 395.672742 668.768772 415.357688 683.280542 429.869458 
C 697.792312 444.381228 717.477258 452.535 738 452.535 
z
" style="fill:none;stroke:#800080;stroke-linejoin:miter;stroke-width:20;"/>
   </g>
   <g id="patch_10">
    <path clip-path="url(#pe041fd6ae6)" d="M 738 491.2275 
C 768.784113 491.2275 798.311532 478.996842 820.079187 457.229187 
C 841.846842 435.461532 854.0775 405.934113 854.0775 375.15 
C 854.0775 344.365887 841.846842 314.838468 820.079187 293.070813 
C 798.311532 271.303158 768.784113 259.0725 738 259.0725 
C 707.215887 259.0725 677.688468 271.303158 655.920813 293.070813 
C 634.153158 314.838468 621.9225 344.365887 621.9225 375.15 
C 621.9225 405.934113 634.153158 435.461532 655.920813 457.229187 
C 677.688468 478.996842 707.215887 491.2275 738 491.2275 
z
" style="fill:none;stroke:#800080;stroke-linejoin:miter;stroke-width:20;"/>
   </g>
   <g id="patch_11">
    <path clip-path="url(#pe041fd6ae6)" d="M 738 529.92 
C 779.045484 529.92 818.415377 513.612456 847.438917 484.588917 
C 876.462456 455.565377 892.77 416.195484 892.77 375.15 
C 892.77 334.104516 876.462456 294.734623 847.438917 265.711083 
C 818.415377 236.687544 779.045484 220.38 738 220.38 
C 696.954516 220.38 657.584623 236.687544 628.561083 265.711083 
C 599.537544 294.734623 583.23 334.104516 583.23 375.15 
C 583.23 416.195484 599.537544 455.565377 628.561083 484.588917 
C 657.584623 513.612456 696.954516 529.92 738 529.92 
z
" style="fill:none;stroke:#800080;stroke-linejoin:miter;stroke-width:20;"/>
   </g>
   <g id="patch_12">
    <path clip-path="url(#pe041fd6ae6)" d="M 738 568.6125 
C 789.306855 568.6125 838.519221 548.228071 874.798646 511.948646 
C 911.078071 475.669221 931.4625 426.456855 931.4625 375.15 
C 931.4625 323.843145 911.078071 274.630779 874.798646 238.351354 
C 838.519221 202.071929 789.306855 181.6875 738 181.6875 
C 686.693145 181.6875 637.480779 202.071929 601.201354 238.351354 
C 564.921929 274.630779 544.5375 323.843145 544.5375 375.15 
C 544.5375 426.456855 564.921929 475.669221 601.201354 511.948646 
C 637.480779 548.228071 686.693145 568.6125 738 568.6125 
z
" style="fill:none;stroke:#800080;stroke-linejoin:miter;stroke-width:20;"/>
   </g>
   <g id="text_1">
    <!-- $RMSE\cdot 10^4$ -->
    <g transform="translate(685.882779 160.680682)scale(0.2 -0.2)">
     <defs>
      <path d="M 2355 3924 
C 2413 4160 2438 4160 2688 4160 
L 3149 4160 
C 3699 4160 4109 3995 4109 3499 
C 4109 3175 3942 2240 2656 2240 
L 1933 2240 
L 2355 3924 
z
M 3245 2169 
C 4038 2341 4659 2851 4659 3398 
C 4659 3894 4154 4352 3264 4352 
L 1530 4352 
C 1402 4352 1344 4352 1344 4226 
C 1344 4160 1389 4160 1510 4160 
C 1894 4160 1894 4112 1894 4045 
C 1894 4033 1894 3994 1869 3899 
L 1005 479 
C 947 256 934 192 493 192 
C 346 192 301 192 301 71 
C 301 7 371 7 390 7 
C 506 7 640 7 762 7 
L 1517 7 
C 1632 7 1766 7 1882 7 
C 1933 7 2003 7 2003 128 
C 2003 192 1946 192 1850 192 
C 1459 192 1459 243 1459 306 
C 1459 313 1459 357 1472 407 
L 1901 2112 
L 2669 2112 
C 3277 2112 3392 1731 3392 1522 
C 3392 1427 3328 1179 3283 1014 
C 3213 723 3194 652 3194 532 
C 3194 82 3565 -128 3994 -128 
C 4512 -128 4736 501 4736 591 
C 4736 635 4704 654 4666 654 
C 4614 654 4602 616 4589 565 
C 4435 114 4173 0 4013 0 
C 3853 0 3750 70 3750 356 
C 3750 509 3827 1088 3834 1120 
C 3866 1355 3866 1380 3866 1432 
C 3866 1896 3488 2093 3245 2169 
z
" id="CMMI12-52" transform="scale(0.015625)"/>
      <path d="M 5811 3886 
C 5869 4103 5882 4167 6336 4167 
C 6458 4167 6515 4167 6515 4288 
C 6515 4352 6470 4352 6349 4352 
L 5581 4352 
C 5421 4352 5414 4346 5344 4243 
L 3008 562 
L 2528 4211 
C 2509 4352 2502 4352 2336 4352 
L 1542 4352 
C 1421 4352 1363 4352 1363 4231 
C 1363 4167 1421 4167 1517 4167 
C 1907 4167 1907 4116 1907 4046 
C 1907 4034 1907 3995 1882 3899 
L 1062 634 
C 986 327 838 186 410 186 
C 390 186 314 186 314 73 
C 314 0 371 0 397 0 
C 525 0 851 0 979 0 
L 1286 0 
C 1376 0 1485 0 1574 0 
C 1619 0 1690 0 1690 122 
C 1690 180 1626 186 1600 186 
C 1389 186 1184 224 1184 454 
C 1184 518 1184 524 1210 613 
L 2093 4129 
L 2099 4129 
L 2630 172 
C 2650 19 2656 0 2714 0 
C 2784 0 2816 51 2848 109 
L 5421 4161 
L 5427 4161 
L 4499 473 
C 4442 250 4429 186 3981 186 
C 3859 186 3795 186 3795 70 
C 3795 0 3853 0 3891 0 
C 4000 0 4128 0 4237 0 
L 4992 0 
C 5101 0 5235 0 5344 0 
C 5395 0 5466 0 5466 122 
C 5466 186 5408 186 5312 186 
C 4922 186 4922 234 4922 294 
C 4922 301 4922 345 4934 396 
L 5811 3886 
z
" id="CMMI12-4d" transform="scale(0.015625)"/>
      <path d="M 4064 4423 
C 4064 4480 4019 4480 4006 4480 
C 3981 4480 3974 4474 3898 4378 
C 3859 4333 3597 4001 3590 3995 
C 3379 4410 2957 4480 2688 4480 
C 1875 4480 1139 3743 1139 3025 
C 1139 2549 1427 2269 1741 2161 
C 1811 2135 2189 2033 2381 1989 
C 2707 1900 2790 1875 2925 1735 
C 2950 1703 3078 1557 3078 1258 
C 3078 667 2528 57 1888 57 
C 1363 57 781 280 781 991 
C 781 1112 806 1265 826 1328 
C 826 1348 832 1378 832 1391 
C 832 1417 819 1449 768 1449 
C 710 1449 704 1436 678 1328 
L 352 24 
C 352 18 326 -64 326 -71 
C 326 -128 378 -128 390 -128 
C 416 -128 422 -122 499 -26 
L 794 356 
C 947 126 1280 -128 1875 -128 
C 2701 -128 3456 666 3456 1460 
C 3456 1728 3392 1963 3149 2197 
C 3014 2331 2899 2363 2310 2516 
C 1882 2630 1824 2649 1709 2751 
C 1600 2858 1517 3011 1517 3227 
C 1517 3761 2061 4308 2669 4308 
C 3296 4308 3590 3926 3590 3323 
C 3590 3158 3558 2986 3558 2961 
C 3558 2903 3610 2903 3629 2903 
C 3686 2903 3693 2922 3718 3024 
L 4064 4423 
z
" id="CMMI12-53" transform="scale(0.015625)"/>
      <path d="M 4448 1489 
C 4454 1508 4474 1554 4474 1579 
C 4474 1611 4448 1643 4410 1643 
C 4384 1643 4371 1637 4352 1617 
C 4339 1611 4339 1598 4282 1469 
C 3904 570 3629 185 2605 185 
L 1670 185 
C 1581 185 1568 185 1530 192 
C 1459 198 1453 211 1453 262 
C 1453 307 1466 345 1478 403 
L 1920 2176 
L 2554 2176 
C 3053 2176 3091 2066 3091 1874 
C 3091 1810 3091 1752 3046 1560 
C 3034 1534 3027 1508 3027 1489 
C 3027 1444 3059 1425 3098 1425 
C 3155 1425 3162 1469 3187 1559 
L 3552 3042 
C 3552 3073 3526 3105 3488 3105 
C 3430 3105 3424 3080 3398 2990 
C 3270 2501 3142 2361 2573 2361 
L 1965 2361 
L 2362 3930 
C 2419 4154 2432 4154 2694 4154 
L 3610 4154 
C 4397 4154 4557 3943 4557 3458 
C 4557 3451 4557 3273 4531 3062 
C 4525 3036 4518 2998 4518 2985 
C 4518 2934 4550 2915 4589 2915 
C 4634 2915 4659 2941 4672 3055 
L 4806 4174 
C 4806 4195 4819 4263 4819 4277 
C 4819 4352 4762 4352 4646 4352 
L 1523 4352 
C 1402 4352 1338 4352 1338 4229 
C 1338 4154 1382 4154 1491 4154 
C 1888 4154 1888 4114 1888 4052 
C 1888 4020 1882 3994 1862 3924 
L 998 473 
C 941 249 928 185 480 185 
C 358 185 294 185 294 70 
C 294 0 333 0 461 0 
L 3674 0 
C 3814 0 3821 6 3866 110 
L 4448 1489 
z
" id="CMMI12-45" transform="scale(0.015625)"/>
      <path d="M 1229 1619 
C 1229 1805 1075 1958 890 1958 
C 704 1958 550 1805 550 1619 
C 550 1433 704 1280 890 1280 
C 1075 1280 1229 1433 1229 1619 
z
" id="CMSY10-1" transform="scale(0.015625)"/>
      <path d="M 1702 4058 
C 1702 4192 1696 4192 1606 4192 
C 1357 3916 979 3827 621 3827 
C 602 3827 570 3827 563 3808 
C 557 3795 557 3782 557 3648 
C 755 3648 1088 3686 1344 3839 
L 1344 461 
C 1344 236 1331 160 781 160 
L 589 160 
L 589 0 
C 896 0 1216 0 1523 0 
C 1830 0 2150 0 2458 0 
L 2458 160 
L 2266 160 
C 1715 160 1702 230 1702 458 
L 1702 4058 
z
" id="CMR17-31" transform="scale(0.015625)"/>
      <path d="M 2688 2025 
C 2688 2416 2682 3080 2413 3591 
C 2176 4039 1798 4198 1466 4198 
C 1158 4198 768 4058 525 3597 
C 269 3118 243 2524 243 2025 
C 243 1661 250 1106 448 619 
C 723 -39 1216 -128 1466 -128 
C 1760 -128 2208 -7 2470 600 
C 2662 1042 2688 1559 2688 2025 
z
M 1466 -26 
C 1056 -26 813 325 723 812 
C 653 1188 653 1738 653 2096 
C 653 2588 653 2997 736 3387 
C 858 3929 1216 4096 1466 4096 
C 1728 4096 2067 3923 2189 3400 
C 2272 3036 2278 2607 2278 2096 
C 2278 1680 2278 1169 2202 792 
C 2067 95 1690 -26 1466 -26 
z
" id="CMR17-30" transform="scale(0.015625)"/>
      <path d="M 2150 4122 
C 2150 4256 2144 4256 2029 4256 
L 128 1254 
L 128 1088 
L 1779 1088 
L 1779 457 
C 1779 224 1766 160 1318 160 
L 1197 160 
L 1197 0 
C 1402 0 1747 0 1965 0 
C 2182 0 2528 0 2733 0 
L 2733 160 
L 2611 160 
C 2163 160 2150 224 2150 457 
L 2150 1088 
L 2803 1088 
L 2803 1254 
L 2150 1254 
L 2150 4122 
z
M 1798 3703 
L 1798 1254 
L 256 1254 
L 1798 3703 
z
" id="CMR17-34" transform="scale(0.015625)"/>
     </defs>
     <use transform="scale(0.996264)" xlink:href="#CMMI12-52"/>
     <use transform="translate(75.070962 0)scale(0.996264)" xlink:href="#CMMI12-4d"/>
     <use transform="translate(179.851041 0)scale(0.996264)" xlink:href="#CMMI12-53"/>
     <use transform="translate(245.64548 0)scale(0.996264)" xlink:href="#CMMI12-45"/>
     <use transform="translate(345.836323 0)scale(0.996264)" xlink:href="#CMSY10-1"/>
     <use transform="translate(395.649615 0)scale(0.996264)" xlink:href="#CMR17-31"/>
     <use transform="translate(441.340092 0)scale(0.996264)" xlink:href="#CMR17-30"/>
     <use transform="translate(487.030569 36.153639)scale(0.697382)" xlink:href="#CMR17-34"/>
    </g>
   </g>
   <g id="text_2">
    <!-- $R^2$ -->
    <g transform="translate(952.469318 364.228675)rotate(-270)scale(0.2 -0.2)">
     <defs>
      <path d="M 2669 989 
L 2554 989 
C 2490 536 2438 459 2413 420 
C 2381 369 1920 369 1830 369 
L 602 369 
C 832 619 1280 1072 1824 1597 
C 2214 1967 2669 2402 2669 3035 
C 2669 3790 2067 4224 1395 4224 
C 691 4224 262 3604 262 3030 
C 262 2780 448 2748 525 2748 
C 589 2748 781 2787 781 3010 
C 781 3207 614 3264 525 3264 
C 486 3264 448 3258 422 3245 
C 544 3790 915 4058 1306 4058 
C 1862 4058 2227 3617 2227 3035 
C 2227 2479 1901 2000 1536 1584 
L 262 146 
L 262 0 
L 2515 0 
L 2669 989 
z
" id="CMR17-32" transform="scale(0.015625)"/>
     </defs>
     <use transform="scale(0.996264)" xlink:href="#CMMI12-52"/>
     <use transform="translate(75.070962 36.153639)scale(0.697382)" xlink:href="#CMR17-32"/>
    </g>
   </g>
   <g id="text_3">
    <!-- $MAPE\cdot 10^3$ -->
    <g transform="translate(685.013944 599.580682)scale(0.2 -0.2)">
     <defs>
      <path d="M 1088 691 
C 864 314 646 186 339 186 
C 269 180 218 180 218 58 
C 218 24 250 0 294 0 
C 410 0 698 0 813 0 
C 998 0 1203 0 1382 0 
C 1421 0 1498 0 1498 122 
C 1498 180 1446 186 1408 186 
C 1261 186 1139 236 1139 388 
C 1139 476 1178 546 1261 685 
L 1747 1479 
L 3379 1479 
C 3386 1423 3386 1373 3392 1316 
C 3411 1152 3488 495 3488 376 
C 3488 186 3162 186 3059 186 
C 2989 186 2918 186 2918 70 
C 2918 0 2976 0 3014 0 
C 3123 0 3251 0 3360 0 
L 3725 0 
C 4115 0 4397 0 4403 0 
C 4448 0 4518 0 4518 122 
C 4518 186 4461 186 4365 186 
C 4013 186 4006 244 3987 434 
L 3597 4404 
C 3584 4531 3558 4544 3488 4544 
C 3424 4544 3386 4531 3328 4435 
L 1088 691 
z
M 1856 1664 
L 3142 3819 
L 3360 1664 
L 1856 1664 
z
" id="CMMI12-41" transform="scale(0.015625)"/>
      <path d="M 1894 2023 
L 2970 2023 
C 3853 2023 4736 2673 4736 3401 
C 4736 3898 4314 4352 3507 4352 
L 1530 4352 
C 1408 4352 1350 4352 1350 4231 
C 1350 4167 1408 4167 1504 4167 
C 1894 4167 1894 4116 1894 4046 
C 1894 4034 1894 3995 1869 3899 
L 1005 472 
C 947 249 934 185 486 185 
C 365 185 301 185 301 70 
C 301 0 358 0 397 0 
C 518 0 646 0 768 0 
L 1517 0 
C 1638 0 1773 0 1894 0 
C 1946 0 2016 0 2016 121 
C 2016 185 1958 185 1862 185 
C 1478 185 1472 230 1472 293 
C 1472 325 1478 369 1485 401 
L 1894 2023 
z
M 2355 3930 
C 2413 4167 2438 4167 2688 4167 
L 3322 4167 
C 3802 4167 4198 4013 4198 3535 
C 4198 3369 4115 2827 3821 2534 
C 3712 2419 3405 2176 2822 2176 
L 1920 2176 
L 2355 3930 
z
" id="CMMI12-50" transform="scale(0.015625)"/>
      <path d="M 1414 2157 
C 1984 2157 2234 1662 2234 1090 
C 2234 320 1824 25 1453 25 
C 1114 25 563 194 390 693 
C 422 680 454 680 486 680 
C 640 680 755 782 755 948 
C 755 1133 614 1216 486 1216 
C 378 1216 211 1165 211 926 
C 211 335 787 -128 1466 -128 
C 2176 -128 2720 430 2720 1085 
C 2720 1707 2208 2157 1600 2227 
C 2086 2328 2554 2756 2554 3329 
C 2554 3820 2048 4179 1472 4179 
C 890 4179 378 3829 378 3329 
C 378 3110 544 3072 627 3072 
C 762 3072 877 3155 877 3321 
C 877 3486 762 3569 627 3569 
C 602 3569 570 3569 544 3557 
C 730 3959 1235 4032 1459 4032 
C 1683 4032 2106 3925 2106 3320 
C 2106 3143 2080 2828 1862 2550 
C 1670 2304 1453 2304 1242 2284 
C 1210 2284 1062 2269 1037 2269 
C 992 2263 966 2257 966 2208 
C 966 2163 973 2157 1101 2157 
L 1414 2157 
z
" id="CMR17-33" transform="scale(0.015625)"/>
     </defs>
     <use transform="scale(0.996264)" xlink:href="#CMMI12-4d"/>
     <use transform="translate(104.780079 0)scale(0.996264)" xlink:href="#CMMI12-41"/>
     <use transform="translate(177.907964 0)scale(0.996264)" xlink:href="#CMMI12-50"/>
     <use transform="translate(254.333785 0)scale(0.996264)" xlink:href="#CMMI12-45"/>
     <use transform="translate(354.524628 0)scale(0.996264)" xlink:href="#CMSY10-1"/>
     <use transform="translate(404.33792 0)scale(0.996264)" xlink:href="#CMR17-31"/>
     <use transform="translate(450.028397 0)scale(0.996264)" xlink:href="#CMR17-30"/>
     <use transform="translate(495.718874 36.153639)scale(0.697382)" xlink:href="#CMR17-33"/>
    </g>
   </g>
   <g id="text_4">
    <!-- $MAE\cdot 10^4$ -->
    <g transform="translate(513.569318 329.806526)rotate(-270)scale(0.2 -0.2)">
     <use transform="scale(0.996264)" xlink:href="#CMMI12-4d"/>
     <use transform="translate(104.780079 0)scale(0.996264)" xlink:href="#CMMI12-41"/>
     <use transform="translate(177.907964 0)scale(0.996264)" xlink:href="#CMMI12-45"/>
     <use transform="translate(278.098807 0)scale(0.996264)" xlink:href="#CMSY10-1"/>
     <use transform="translate(327.912099 0)scale(0.996264)" xlink:href="#CMR17-31"/>
     <use transform="translate(373.602576 0)scale(0.996264)" xlink:href="#CMR17-30"/>
     <use transform="translate(419.293053 36.153639)scale(0.697382)" xlink:href="#CMR17-34"/>
    </g>
   </g>
   <g id="text_5">
    <!-- 0.0 -->
    <g transform="translate(728.651474 350.01099)scale(0.15 -0.15)">
     <defs>
      <path d="M 2758 2044 
C 2758 2405 2752 3077 2490 3596 
C 2227 4096 1805 4229 1504 4229 
C 1069 4229 698 3975 506 3570 
C 301 3146 243 2709 243 2044 
C 243 1589 262 1031 493 543 
C 755 5 1197 -128 1498 -128 
C 1894 -128 2278 81 2496 518 
C 2720 974 2758 1474 2758 2044 
z
M 1498 261 
C 1011 261 864 811 819 995 
C 742 1310 730 1614 730 2114 
C 730 2506 730 2948 851 3297 
C 998 3701 1254 3840 1498 3840 
C 1971 3840 2125 3372 2176 3208 
C 2272 2873 2272 2481 2272 2114 
C 2272 1526 2272 261 1498 261 
z
" id="CMSS17-30" transform="scale(0.015625)"/>
      <path d="M 1088 510 
L 576 510 
L 576 0 
L 1088 0 
L 1088 510 
z
" id="CMSS17-2e" transform="scale(0.015625)"/>
     </defs>
     <use transform="scale(0.996264)" xlink:href="#CMSS17-30"/>
     <use transform="translate(46.843624 0)scale(0.996264)" xlink:href="#CMSS17-2e"/>
     <use transform="translate(72.867828 0)scale(0.996264)" xlink:href="#CMSS17-30"/>
    </g>
   </g>
   <g id="text_6">
    <!-- 0.0 -->
    <g transform="translate(763.13901 365.801474)rotate(-270)scale(0.15 -0.15)">
     <use transform="scale(0.996264)" xlink:href="#CMSS17-30"/>
     <use transform="translate(46.843624 0)scale(0.996264)" xlink:href="#CMSS17-2e"/>
     <use transform="translate(72.867828 0)scale(0.996264)" xlink:href="#CMSS17-30"/>
    </g>
   </g>
   <g id="text_7">
    <!-- 0.0 -->
    <g transform="translate(728.651474 407.76099)scale(0.15 -0.15)">
     <use transform="scale(0.996264)" xlink:href="#CMSS17-30"/>
     <use transform="translate(46.843624 0)scale(0.996264)" xlink:href="#CMSS17-2e"/>
     <use transform="translate(72.867828 0)scale(0.996264)" xlink:href="#CMSS17-30"/>
    </g>
   </g>
   <g id="text_8">
    <!-- 0.0 -->
    <g transform="translate(705.38901 365.801474)rotate(-270)scale(0.15 -0.15)">
     <use transform="scale(0.996264)" xlink:href="#CMSS17-30"/>
     <use transform="translate(46.843624 0)scale(0.996264)" xlink:href="#CMSS17-2e"/>
     <use transform="translate(72.867828 0)scale(0.996264)" xlink:href="#CMSS17-30"/>
    </g>
   </g>
   <g id="text_9">
    <!-- 0.56 -->
    <g transform="translate(724.993355 331.53099)scale(0.15 -0.15)">
     <defs>
      <path d="M 934 3752 
L 2502 3752 
L 2502 4160 
L 467 4160 
L 467 1781 
L 896 1781 
C 1011 2046 1248 2240 1555 2240 
C 1843 2240 2163 1989 2163 1266 
C 2163 493 1709 267 1376 267 
C 966 267 589 512 422 851 
L 218 499 
C 512 49 992 -128 1376 -128 
C 2118 -128 2701 497 2701 1253 
C 2701 2030 2182 2629 1562 2629 
C 1338 2629 1120 2553 934 2399 
L 934 3752 
z
" id="CMSS17-35" transform="scale(0.015625)"/>
      <path d="M 2496 4101 
C 2227 4210 2035 4229 1856 4229 
C 1024 4229 250 3368 250 2006 
C 250 265 986 -128 1510 -128 
C 1798 -128 2086 -39 2362 280 
C 2643 617 2752 898 2752 1389 
C 2752 2179 2362 2880 1779 2880 
C 1357 2880 992 2657 768 2376 
C 832 3258 1254 3840 1862 3840 
C 2029 3840 2246 3816 2496 3710 
L 2496 4101 
z
M 774 1369 
C 774 1420 774 1452 781 1548 
C 781 2045 1069 2491 1536 2491 
C 1837 2491 1990 2332 2106 2135 
C 2240 1886 2246 1650 2246 1388 
C 2246 1140 2246 891 2099 637 
C 1978 439 1818 267 1510 267 
C 902 267 800 1114 774 1369 
z
" id="CMSS17-36" transform="scale(0.015625)"/>
     </defs>
     <use transform="scale(0.996264)" xlink:href="#CMSS17-30"/>
     <use transform="translate(46.843624 0)scale(0.996264)" xlink:href="#CMSS17-2e"/>
     <use transform="translate(72.867828 0)scale(0.996264)" xlink:href="#CMSS17-35"/>
     <use transform="translate(119.711452 0)scale(0.996264)" xlink:href="#CMSS17-36"/>
    </g>
   </g>
   <g id="text_10">
    <!-- 0.11 -->
    <g transform="translate(781.61901 362.143355)rotate(-270)scale(0.15 -0.15)">
     <defs>
      <path d="M 1818 4288 
L 1696 4288 
C 1350 3940 947 3890 538 3890 
L 538 3520 
C 723 3520 1024 3520 1325 3667 
L 1325 369 
L 570 369 
L 570 0 
L 2573 0 
L 2573 369 
L 1818 369 
L 1818 4288 
z
" id="CMSS17-31" transform="scale(0.015625)"/>
     </defs>
     <use transform="scale(0.996264)" xlink:href="#CMSS17-30"/>
     <use transform="translate(46.843624 0)scale(0.996264)" xlink:href="#CMSS17-2e"/>
     <use transform="translate(72.867828 0)scale(0.996264)" xlink:href="#CMSS17-31"/>
     <use transform="translate(119.711452 0)scale(0.996264)" xlink:href="#CMSS17-31"/>
    </g>
   </g>
   <g id="text_11">
    <!-- 0.11 -->
    <g transform="translate(724.993355 426.24099)scale(0.15 -0.15)">
     <use transform="scale(0.996264)" xlink:href="#CMSS17-30"/>
     <use transform="translate(46.843624 0)scale(0.996264)" xlink:href="#CMSS17-2e"/>
     <use transform="translate(72.867828 0)scale(0.996264)" xlink:href="#CMSS17-31"/>
     <use transform="translate(119.711452 0)scale(0.996264)" xlink:href="#CMSS17-31"/>
    </g>
   </g>
   <g id="text_12">
    <!-- 0.33 -->
    <g transform="translate(686.90901 362.143355)rotate(-270)scale(0.15 -0.15)">
     <defs>
      <path d="M 1005 2025 
L 1440 2025 
C 2042 2025 2214 1507 2214 1146 
C 2214 653 1933 267 1472 267 
C 1114 267 608 444 320 912 
C 275 691 275 678 250 526 
C 550 88 1037 -128 1485 -128 
C 2214 -128 2752 473 2752 1138 
C 2752 1638 2400 2057 1920 2215 
C 2304 2424 2586 2816 2586 3273 
C 2586 3805 2093 4229 1491 4229 
C 941 4229 512 3892 333 3530 
C 378 3468 493 3284 550 3189 
C 691 3562 1056 3840 1485 3840 
C 1843 3840 2080 3607 2080 3271 
C 2080 2923 1856 2543 1478 2455 
C 1453 2455 1056 2417 1005 2411 
L 1005 2025 
z
" id="CMSS17-33" transform="scale(0.015625)"/>
     </defs>
     <use transform="scale(0.996264)" xlink:href="#CMSS17-30"/>
     <use transform="translate(46.843624 0)scale(0.996264)" xlink:href="#CMSS17-2e"/>
     <use transform="translate(72.867828 0)scale(0.996264)" xlink:href="#CMSS17-33"/>
     <use transform="translate(119.711452 0)scale(0.996264)" xlink:href="#CMSS17-33"/>
    </g>
   </g>
   <g id="text_13">
    <!-- 1.11 -->
    <g transform="translate(724.993355 311.89599)scale(0.15 -0.15)">
     <use transform="scale(0.996264)" xlink:href="#CMSS17-31"/>
     <use transform="translate(46.843624 0)scale(0.996264)" xlink:href="#CMSS17-2e"/>
     <use transform="translate(72.867828 0)scale(0.996264)" xlink:href="#CMSS17-31"/>
     <use transform="translate(119.711452 0)scale(0.996264)" xlink:href="#CMSS17-31"/>
    </g>
   </g>
   <g id="text_14">
    <!-- 0.22 -->
    <g transform="translate(801.25401 362.143355)rotate(-270)scale(0.15 -0.15)">
     <defs>
      <path d="M 1651 1357 
C 1830 1541 2099 1764 2285 1987 
C 2464 2204 2701 2511 2701 2957 
C 2701 3657 2227 4288 1421 4288 
C 787 4288 422 3893 250 3274 
L 499 2929 
C 640 3510 838 3880 1338 3880 
C 1888 3880 2195 3433 2195 2942 
C 2195 2355 1747 1901 1408 1563 
C 1030 1187 659 804 301 408 
L 301 0 
L 2701 0 
L 2701 433 
L 1613 433 
C 1536 433 1459 433 1382 433 
L 742 433 
L 742 439 
L 1651 1357 
z
" id="CMSS17-32" transform="scale(0.015625)"/>
     </defs>
     <use transform="scale(0.996264)" xlink:href="#CMSS17-30"/>
     <use transform="translate(46.843624 0)scale(0.996264)" xlink:href="#CMSS17-2e"/>
     <use transform="translate(72.867828 0)scale(0.996264)" xlink:href="#CMSS17-32"/>
     <use transform="translate(119.711452 0)scale(0.996264)" xlink:href="#CMSS17-32"/>
    </g>
   </g>
   <g id="text_15">
    <!-- 0.22 -->
    <g transform="translate(724.993355 445.87599)scale(0.15 -0.15)">
     <use transform="scale(0.996264)" xlink:href="#CMSS17-30"/>
     <use transform="translate(46.843624 0)scale(0.996264)" xlink:href="#CMSS17-2e"/>
     <use transform="translate(72.867828 0)scale(0.996264)" xlink:href="#CMSS17-32"/>
     <use transform="translate(119.711452 0)scale(0.996264)" xlink:href="#CMSS17-32"/>
    </g>
   </g>
   <g id="text_16">
    <!-- 0.67 -->
    <g transform="translate(667.27401 362.143355)rotate(-270)scale(0.15 -0.15)">
     <defs>
      <path d="M 1389 3776 
C 1466 3776 1542 3776 1619 3776 
L 2355 3776 
C 1440 2711 915 1365 915 -32 
L 1427 -32 
C 1427 1323 1875 2696 2752 3795 
L 2752 4209 
L 250 4209 
L 250 3776 
L 1389 3776 
z
" id="CMSS17-37" transform="scale(0.015625)"/>
     </defs>
     <use transform="scale(0.996264)" xlink:href="#CMSS17-30"/>
     <use transform="translate(46.843624 0)scale(0.996264)" xlink:href="#CMSS17-2e"/>
     <use transform="translate(72.867828 0)scale(0.996264)" xlink:href="#CMSS17-36"/>
     <use transform="translate(119.711452 0)scale(0.996264)" xlink:href="#CMSS17-37"/>
    </g>
   </g>
   <g id="text_17">
    <!-- 1.67 -->
    <g transform="translate(724.993355 292.26099)scale(0.15 -0.15)">
     <use transform="scale(0.996264)" xlink:href="#CMSS17-31"/>
     <use transform="translate(46.843624 0)scale(0.996264)" xlink:href="#CMSS17-2e"/>
     <use transform="translate(72.867828 0)scale(0.996264)" xlink:href="#CMSS17-36"/>
     <use transform="translate(119.711452 0)scale(0.996264)" xlink:href="#CMSS17-37"/>
    </g>
   </g>
   <g id="text_18">
    <!-- 0.33 -->
    <g transform="translate(820.88901 362.143355)rotate(-270)scale(0.15 -0.15)">
     <use transform="scale(0.996264)" xlink:href="#CMSS17-30"/>
     <use transform="translate(46.843624 0)scale(0.996264)" xlink:href="#CMSS17-2e"/>
     <use transform="translate(72.867828 0)scale(0.996264)" xlink:href="#CMSS17-33"/>
     <use transform="translate(119.711452 0)scale(0.996264)" xlink:href="#CMSS17-33"/>
    </g>
   </g>
   <g id="text_19">
    <!-- 0.33 -->
    <g transform="translate(724.993355 465.51099)scale(0.15 -0.15)">
     <use transform="scale(0.996264)" xlink:href="#CMSS17-30"/>
     <use transform="translate(46.843624 0)scale(0.996264)" xlink:href="#CMSS17-2e"/>
     <use transform="translate(72.867828 0)scale(0.996264)" xlink:href="#CMSS17-33"/>
     <use transform="translate(119.711452 0)scale(0.996264)" xlink:href="#CMSS17-33"/>
    </g>
   </g>
   <g id="text_20">
    <!-- 1.0 -->
    <g transform="translate(647.63901 365.801474)rotate(-270)scale(0.15 -0.15)">
     <use transform="scale(0.996264)" xlink:href="#CMSS17-31"/>
     <use transform="translate(46.843624 0)scale(0.996264)" xlink:href="#CMSS17-2e"/>
     <use transform="translate(72.867828 0)scale(0.996264)" xlink:href="#CMSS17-30"/>
    </g>
   </g>
   <g id="text_21">
    <!-- 2.22 -->
    <g transform="translate(724.993355 272.62599)scale(0.15 -0.15)">
     <use transform="scale(0.996264)" xlink:href="#CMSS17-32"/>
     <use transform="translate(46.843624 0)scale(0.996264)" xlink:href="#CMSS17-2e"/>
     <use transform="translate(72.867828 0)scale(0.996264)" xlink:href="#CMSS17-32"/>
     <use transform="translate(119.711452 0)scale(0.996264)" xlink:href="#CMSS17-32"/>
    </g>
   </g>
   <g id="text_22">
    <!-- 0.44 -->
    <g transform="translate(840.52401 362.143355)rotate(-270)scale(0.15 -0.15)">
     <defs>
      <path d="M 2253 1088 
L 2835 1088 
L 2835 1477 
L 2253 1477 
L 2253 4192 
L 1690 4192 
L 166 1477 
L 166 1088 
L 1747 1088 
L 1747 0 
L 2253 0 
L 2253 1088 
z
M 659 1477 
C 1030 2127 1766 3439 1766 3885 
L 1766 1477 
L 659 1477 
z
" id="CMSS17-34" transform="scale(0.015625)"/>
     </defs>
     <use transform="scale(0.996264)" xlink:href="#CMSS17-30"/>
     <use transform="translate(46.843624 0)scale(0.996264)" xlink:href="#CMSS17-2e"/>
     <use transform="translate(72.867828 0)scale(0.996264)" xlink:href="#CMSS17-34"/>
     <use transform="translate(119.711452 0)scale(0.996264)" xlink:href="#CMSS17-34"/>
    </g>
   </g>
   <g id="text_23">
    <!-- 0.44 -->
    <g transform="translate(724.993355 485.14599)scale(0.15 -0.15)">
     <use transform="scale(0.996264)" xlink:href="#CMSS17-30"/>
     <use transform="translate(46.843624 0)scale(0.996264)" xlink:href="#CMSS17-2e"/>
     <use transform="translate(72.867828 0)scale(0.996264)" xlink:href="#CMSS17-34"/>
     <use transform="translate(119.711452 0)scale(0.996264)" xlink:href="#CMSS17-34"/>
    </g>
   </g>
   <g id="text_24">
    <!-- 1.33 -->
    <g transform="translate(628.00401 362.143355)rotate(-270)scale(0.15 -0.15)">
     <use transform="scale(0.996264)" xlink:href="#CMSS17-31"/>
     <use transform="translate(46.843624 0)scale(0.996264)" xlink:href="#CMSS17-2e"/>
     <use transform="translate(72.867828 0)scale(0.996264)" xlink:href="#CMSS17-33"/>
     <use transform="translate(119.711452 0)scale(0.996264)" xlink:href="#CMSS17-33"/>
    </g>
   </g>
   <g id="text_25">
    <!-- 2.78 -->
    <g transform="translate(724.993355 252.99099)scale(0.15 -0.15)">
     <defs>
      <path d="M 1933 2222 
C 2419 2380 2669 2760 2669 3134 
C 2669 3722 2157 4229 1504 4229 
C 826 4229 333 3708 333 3144 
C 333 2780 576 2403 1069 2241 
C 442 1997 250 1512 250 1149 
C 250 446 819 -128 1498 -128 
C 2202 -128 2752 455 2752 1138 
C 2752 1557 2502 2000 1933 2222 
z
M 1504 2432 
C 1075 2432 787 2712 787 3136 
C 787 3566 1075 3840 1504 3840 
C 1901 3840 2214 3591 2214 3136 
C 2214 2687 1907 2432 1504 2432 
z
M 1504 267 
C 1139 267 749 517 749 1156 
C 749 1813 1184 2043 1498 2043 
C 1843 2043 2253 1800 2253 1156 
C 2253 491 1830 267 1504 267 
z
" id="CMSS17-38" transform="scale(0.015625)"/>
     </defs>
     <use transform="scale(0.996264)" xlink:href="#CMSS17-32"/>
     <use transform="translate(46.843624 0)scale(0.996264)" xlink:href="#CMSS17-2e"/>
     <use transform="translate(72.867828 0)scale(0.996264)" xlink:href="#CMSS17-37"/>
     <use transform="translate(119.711452 0)scale(0.996264)" xlink:href="#CMSS17-38"/>
    </g>
   </g>
   <g id="text_26">
    <!-- 0.56 -->
    <g transform="translate(860.15901 362.143355)rotate(-270)scale(0.15 -0.15)">
     <use transform="scale(0.996264)" xlink:href="#CMSS17-30"/>
     <use transform="translate(46.843624 0)scale(0.996264)" xlink:href="#CMSS17-2e"/>
     <use transform="translate(72.867828 0)scale(0.996264)" xlink:href="#CMSS17-35"/>
     <use transform="translate(119.711452 0)scale(0.996264)" xlink:href="#CMSS17-36"/>
    </g>
   </g>
   <g id="text_27">
    <!-- 0.56 -->
    <g transform="translate(724.993355 504.78099)scale(0.15 -0.15)">
     <use transform="scale(0.996264)" xlink:href="#CMSS17-30"/>
     <use transform="translate(46.843624 0)scale(0.996264)" xlink:href="#CMSS17-2e"/>
     <use transform="translate(72.867828 0)scale(0.996264)" xlink:href="#CMSS17-35"/>
     <use transform="translate(119.711452 0)scale(0.996264)" xlink:href="#CMSS17-36"/>
    </g>
   </g>
   <g id="text_28">
    <!-- 1.67 -->
    <g transform="translate(608.36901 362.143355)rotate(-270)scale(0.15 -0.15)">
     <use transform="scale(0.996264)" xlink:href="#CMSS17-31"/>
     <use transform="translate(46.843624 0)scale(0.996264)" xlink:href="#CMSS17-2e"/>
     <use transform="translate(72.867828 0)scale(0.996264)" xlink:href="#CMSS17-36"/>
     <use transform="translate(119.711452 0)scale(0.996264)" xlink:href="#CMSS17-37"/>
    </g>
   </g>
   <g id="text_29">
    <!-- 3.33 -->
    <g transform="translate(724.993355 233.35599)scale(0.15 -0.15)">
     <use transform="scale(0.996264)" xlink:href="#CMSS17-33"/>
     <use transform="translate(46.843624 0)scale(0.996264)" xlink:href="#CMSS17-2e"/>
     <use transform="translate(72.867828 0)scale(0.996264)" xlink:href="#CMSS17-33"/>
     <use transform="translate(119.711452 0)scale(0.996264)" xlink:href="#CMSS17-33"/>
    </g>
   </g>
   <g id="text_30">
    <!-- 0.67 -->
    <g transform="translate(879.79401 362.143355)rotate(-270)scale(0.15 -0.15)">
     <use transform="scale(0.996264)" xlink:href="#CMSS17-30"/>
     <use transform="translate(46.843624 0)scale(0.996264)" xlink:href="#CMSS17-2e"/>
     <use transform="translate(72.867828 0)scale(0.996264)" xlink:href="#CMSS17-36"/>
     <use transform="translate(119.711452 0)scale(0.996264)" xlink:href="#CMSS17-37"/>
    </g>
   </g>
   <g id="text_31">
    <!-- 0.67 -->
    <g transform="translate(724.993355 524.41599)scale(0.15 -0.15)">
     <use transform="scale(0.996264)" xlink:href="#CMSS17-30"/>
     <use transform="translate(46.843624 0)scale(0.996264)" xlink:href="#CMSS17-2e"/>
     <use transform="translate(72.867828 0)scale(0.996264)" xlink:href="#CMSS17-36"/>
     <use transform="translate(119.711452 0)scale(0.996264)" xlink:href="#CMSS17-37"/>
    </g>
   </g>
   <g id="text_32">
    <!-- 2.0 -->
    <g transform="translate(588.73401 365.801474)rotate(-270)scale(0.15 -0.15)">
     <use transform="scale(0.996264)" xlink:href="#CMSS17-32"/>
     <use transform="translate(46.843624 0)scale(0.996264)" xlink:href="#CMSS17-2e"/>
     <use transform="translate(72.867828 0)scale(0.996264)" xlink:href="#CMSS17-30"/>
    </g>
   </g>
   <g id="text_33">
    <!-- 3.89 -->
    <g transform="translate(724.993355 213.72099)scale(0.15 -0.15)">
     <defs>
      <path d="M 435 174 
C 614 21 845 -128 1235 -128 
C 2010 -128 2752 721 2752 2095 
C 2752 3932 1952 4229 1523 4229 
C 1094 4229 819 4041 582 3741 
C 301 3397 250 3090 250 2733 
C 250 2307 326 2045 506 1745 
C 749 1357 973 1275 1222 1275 
C 1600 1275 1978 1459 2234 1776 
C 2189 902 1798 267 1235 267 
C 1005 267 819 339 634 516 
L 435 174 
z
M 2214 2746 
C 2221 2703 2221 2622 2221 2596 
C 2221 2074 1914 1664 1466 1664 
C 1171 1664 1018 1813 902 2006 
C 762 2249 755 2485 755 2733 
C 755 2976 755 3244 934 3511 
C 1069 3703 1235 3840 1523 3840 
C 2112 3840 2208 3000 2214 2746 
z
" id="CMSS17-39" transform="scale(0.015625)"/>
     </defs>
     <use transform="scale(0.996264)" xlink:href="#CMSS17-33"/>
     <use transform="translate(46.843624 0)scale(0.996264)" xlink:href="#CMSS17-2e"/>
     <use transform="translate(72.867828 0)scale(0.996264)" xlink:href="#CMSS17-38"/>
     <use transform="translate(119.711452 0)scale(0.996264)" xlink:href="#CMSS17-39"/>
    </g>
   </g>
   <g id="text_34">
    <!-- 0.78 -->
    <g transform="translate(899.42901 362.143355)rotate(-270)scale(0.15 -0.15)">
     <use transform="scale(0.996264)" xlink:href="#CMSS17-30"/>
     <use transform="translate(46.843624 0)scale(0.996264)" xlink:href="#CMSS17-2e"/>
     <use transform="translate(72.867828 0)scale(0.996264)" xlink:href="#CMSS17-37"/>
     <use transform="translate(119.711452 0)scale(0.996264)" xlink:href="#CMSS17-38"/>
    </g>
   </g>
   <g id="text_35">
    <!-- 0.78 -->
    <g transform="translate(724.993355 544.05099)scale(0.15 -0.15)">
     <use transform="scale(0.996264)" xlink:href="#CMSS17-30"/>
     <use transform="translate(46.843624 0)scale(0.996264)" xlink:href="#CMSS17-2e"/>
     <use transform="translate(72.867828 0)scale(0.996264)" xlink:href="#CMSS17-37"/>
     <use transform="translate(119.711452 0)scale(0.996264)" xlink:href="#CMSS17-38"/>
    </g>
   </g>
   <g id="text_36">
    <!-- 2.33 -->
    <g transform="translate(569.09901 362.143355)rotate(-270)scale(0.15 -0.15)">
     <use transform="scale(0.996264)" xlink:href="#CMSS17-32"/>
     <use transform="translate(46.843624 0)scale(0.996264)" xlink:href="#CMSS17-2e"/>
     <use transform="translate(72.867828 0)scale(0.996264)" xlink:href="#CMSS17-33"/>
     <use transform="translate(119.711452 0)scale(0.996264)" xlink:href="#CMSS17-33"/>
    </g>
   </g>
   <g id="text_37">
    <!-- 4.44 -->
    <g transform="translate(724.993355 195.24099)scale(0.15 -0.15)">
     <use transform="scale(0.996264)" xlink:href="#CMSS17-34"/>
     <use transform="translate(46.843624 0)scale(0.996264)" xlink:href="#CMSS17-2e"/>
     <use transform="translate(72.867828 0)scale(0.996264)" xlink:href="#CMSS17-34"/>
     <use transform="translate(119.711452 0)scale(0.996264)" xlink:href="#CMSS17-34"/>
    </g>
   </g>
   <g id="text_38">
    <!-- 0.89 -->
    <g transform="translate(917.90901 362.143355)rotate(-270)scale(0.15 -0.15)">
     <use transform="scale(0.996264)" xlink:href="#CMSS17-30"/>
     <use transform="translate(46.843624 0)scale(0.996264)" xlink:href="#CMSS17-2e"/>
     <use transform="translate(72.867828 0)scale(0.996264)" xlink:href="#CMSS17-38"/>
     <use transform="translate(119.711452 0)scale(0.996264)" xlink:href="#CMSS17-39"/>
    </g>
   </g>
   <g id="text_39">
    <!-- 0.89 -->
    <g transform="translate(724.993355 562.53099)scale(0.15 -0.15)">
     <use transform="scale(0.996264)" xlink:href="#CMSS17-30"/>
     <use transform="translate(46.843624 0)scale(0.996264)" xlink:href="#CMSS17-2e"/>
     <use transform="translate(72.867828 0)scale(0.996264)" xlink:href="#CMSS17-38"/>
     <use transform="translate(119.711452 0)scale(0.996264)" xlink:href="#CMSS17-39"/>
    </g>
   </g>
   <g id="text_40">
    <!-- 2.67 -->
    <g transform="translate(550.61901 362.143355)rotate(-270)scale(0.15 -0.15)">
     <use transform="scale(0.996264)" xlink:href="#CMSS17-32"/>
     <use transform="translate(46.843624 0)scale(0.996264)" xlink:href="#CMSS17-2e"/>
     <use transform="translate(72.867828 0)scale(0.996264)" xlink:href="#CMSS17-36"/>
     <use transform="translate(119.711452 0)scale(0.996264)" xlink:href="#CMSS17-37"/>
    </g>
   </g>
   <g id="text_41">
    <!-- 5.0 -->
    <g transform="translate(728.651474 175.60599)scale(0.15 -0.15)">
     <use transform="scale(0.996264)" xlink:href="#CMSS17-35"/>
     <use transform="translate(46.843624 0)scale(0.996264)" xlink:href="#CMSS17-2e"/>
     <use transform="translate(72.867828 0)scale(0.996264)" xlink:href="#CMSS17-30"/>
    </g>
   </g>
   <g id="text_42">
    <!-- 1.0 -->
    <g transform="translate(937.54401 365.801474)rotate(-270)scale(0.15 -0.15)">
     <use transform="scale(0.996264)" xlink:href="#CMSS17-31"/>
     <use transform="translate(46.843624 0)scale(0.996264)" xlink:href="#CMSS17-2e"/>
     <use transform="translate(72.867828 0)scale(0.996264)" xlink:href="#CMSS17-30"/>
    </g>
   </g>
   <g id="text_43">
    <!-- 1.0 -->
    <g transform="translate(728.651474 582.16599)scale(0.15 -0.15)">
     <use transform="scale(0.996264)" xlink:href="#CMSS17-31"/>
     <use transform="translate(46.843624 0)scale(0.996264)" xlink:href="#CMSS17-2e"/>
     <use transform="translate(72.867828 0)scale(0.996264)" xlink:href="#CMSS17-30"/>
    </g>
   </g>
   <g id="text_44">
    <!-- 3.0 -->
    <g transform="translate(530.98401 365.801474)rotate(-270)scale(0.15 -0.15)">
     <use transform="scale(0.996264)" xlink:href="#CMSS17-33"/>
     <use transform="translate(46.843624 0)scale(0.996264)" xlink:href="#CMSS17-2e"/>
     <use transform="translate(72.867828 0)scale(0.996264)" xlink:href="#CMSS17-30"/>
    </g>
   </g>
   <g id="text_45">
    <!-- Inspired By: Statsbomb / Rami Moghadam -->
    <g style="fill:#95919b;" transform="translate(824.001229 623.475)scale(0.09 -0.09)">
     <defs>
      <path d="M 1094 4416 
L 557 4416 
L 557 0 
L 1094 0 
L 1094 4416 
z
" id="CMSS17-49" transform="scale(0.015625)"/>
      <path d="M 2618 1877 
C 2618 2283 2522 2816 1798 2816 
C 1389 2816 1120 2606 941 2389 
L 941 2758 
L 474 2758 
L 474 0 
L 960 0 
L 960 1559 
C 960 1964 1114 2428 1549 2428 
C 2112 2428 2131 2048 2131 1829 
L 2131 0 
L 2618 0 
L 2618 1877 
z
" id="CMSS17-6e" transform="scale(0.015625)"/>
      <path d="M 2061 2627 
C 1683 2807 1389 2807 1197 2807 
C 742 2807 198 2648 198 2003 
C 198 1359 902 1218 1094 1179 
C 1389 1122 1715 1058 1715 740 
C 1715 337 1254 337 1171 337 
C 915 337 563 407 243 638 
L 166 210 
C 531 0 883 -64 1178 -64 
C 1965 -64 2163 416 2163 781 
C 2163 1094 1984 1305 1862 1401 
C 1651 1568 1574 1587 1050 1696 
C 960 1709 646 1779 646 2066 
C 646 2432 1050 2432 1139 2432 
C 1555 2432 1811 2303 1984 2208 
L 2061 2627 
z
" id="CMSS17-73" transform="scale(0.015625)"/>
      <path d="M 966 333 
C 1178 129 1466 -5 1773 -5 
C 2368 -5 2880 603 2880 1412 
C 2880 2159 2496 2816 1946 2816 
C 1626 2816 1242 2702 954 2472 
L 954 2765 
L 480 2765 
L 480 -1216 
L 966 -1216 
L 966 333 
z
M 966 2100 
C 1018 2176 1235 2415 1587 2415 
C 2035 2415 2394 1960 2394 1412 
C 2394 787 1958 384 1530 384 
C 1402 384 1267 415 1139 523 
C 966 674 966 768 966 857 
L 966 2100 
z
" id="CMSS17-70" transform="scale(0.015625)"/>
      <path d="M 979 4183 
L 442 4183 
L 442 3648 
L 979 3648 
L 979 4183 
z
M 947 2739 
L 474 2739 
L 474 0 
L 947 0 
L 947 2739 
z
" id="CMSS17-69" transform="scale(0.015625)"/>
      <path d="M 954 1363 
C 954 1965 1395 2368 1958 2368 
L 1958 2789 
C 1549 2789 1165 2585 934 2253 
L 934 2758 
L 480 2758 
L 480 0 
L 954 0 
L 954 1363 
z
" id="CMSS17-72" transform="scale(0.015625)"/>
      <path d="M 2502 1377 
C 2502 1590 2490 2003 2285 2345 
C 2061 2713 1696 2816 1421 2816 
C 755 2816 192 2188 192 1375 
C 192 582 774 -64 1510 -64 
C 1798 -64 2150 19 2470 248 
C 2470 274 2458 414 2451 420 
C 2451 433 2432 630 2432 656 
C 2125 407 1773 325 1517 325 
C 1107 325 666 667 646 1377 
L 2502 1377 
z
M 698 1728 
C 781 2084 1062 2421 1421 2421 
C 1517 2421 1965 2421 2080 1728 
L 698 1728 
z
" id="CMSS17-65" transform="scale(0.015625)"/>
      <path d="M 2611 4416 
L 2138 4416 
L 2138 2438 
C 1939 2603 1613 2756 1254 2756 
C 672 2756 211 2131 211 1347 
C 211 562 666 -64 1235 -64 
C 1677 -64 1971 172 2125 306 
L 2125 -13 
L 2611 -13 
L 2611 4416 
z
M 2125 836 
C 2125 747 2125 653 1926 482 
C 1798 375 1645 325 1498 325 
C 1152 325 698 576 698 1340 
C 698 2134 1210 2368 1562 2368 
C 1798 2368 1990 2254 2125 2065 
L 2125 836 
z
" id="CMSS17-64" transform="scale(0.015625)"/>
      <path d="M 570 4416 
L 570 0 
L 2163 0 
C 3034 0 3667 574 3667 1200 
C 3667 1685 3251 2176 2502 2317 
C 3334 2558 3501 3040 3501 3313 
C 3501 3883 2874 4416 1997 4416 
L 570 4416 
z
M 1088 2496 
L 1088 4059 
L 1824 4059 
C 2483 4059 3002 3724 3002 3306 
C 3002 2926 2592 2496 1766 2496 
L 1088 2496 
z
M 1088 357 
L 1088 2107 
L 1939 2107 
C 2630 2107 3162 1679 3162 1206 
C 3162 772 2694 357 1984 357 
L 1088 357 
z
" id="CMSS17-42" transform="scale(0.015625)"/>
      <path d="M 2675 2752 
L 2176 2752 
C 1632 1294 1446 702 1434 383 
L 1427 383 
C 1408 696 1126 1460 902 2007 
L 602 2752 
L 83 2752 
L 1216 13 
C 1146 -178 1043 -465 1011 -529 
C 870 -885 774 -885 672 -885 
C 646 -885 442 -885 211 -809 
L 250 -1229 
C 410 -1261 570 -1280 685 -1280 
C 845 -1280 1165 -1280 1459 -497 
L 2675 2752 
z
" id="CMSS17-79" transform="scale(0.015625)"/>
      <path d="M 1088 2749 
L 576 2749 
L 576 2240 
L 1088 2240 
L 1088 2749 
z
M 576 510 
L 576 0 
L 1088 0 
L 1088 510 
L 576 510 
z
" id="CMSS17-3a" transform="scale(0.015625)"/>
      <path d="M 2797 4169 
C 2515 4334 2208 4480 1690 4480 
C 864 4480 333 3879 333 3266 
C 333 3025 403 2753 653 2475 
C 902 2196 1184 2121 1542 2033 
C 1690 1994 1939 1924 1984 1906 
C 2342 1767 2515 1444 2515 1140 
C 2515 742 2202 318 1645 318 
C 1453 318 890 318 358 819 
L 269 318 
C 794 -64 1363 -128 1651 -128 
C 2438 -128 3002 488 3002 1186 
C 3002 1440 2925 1763 2656 2061 
C 2394 2347 2163 2410 1638 2549 
C 1338 2626 1146 2677 986 2873 
C 877 3013 819 3146 819 3317 
C 819 3673 1126 4060 1690 4060 
C 1971 4060 2336 4002 2707 3660 
L 2797 4169 
z
" id="CMSS17-53" transform="scale(0.015625)"/>
      <path d="M 1069 2368 
L 1901 2368 
L 1901 2737 
L 1069 2737 
L 1069 3520 
L 614 3520 
L 614 2737 
L 109 2737 
L 109 2368 
L 602 2368 
L 602 749 
C 602 384 685 -64 1107 -64 
C 1427 -64 1722 25 2003 172 
L 1901 548 
C 1747 414 1562 337 1363 337 
C 1082 337 1069 696 1069 856 
L 1069 2368 
z
" id="CMSS17-74" transform="scale(0.015625)"/>
      <path d="M 2406 1791 
C 2406 2392 1978 2808 1402 2808 
C 1120 2808 813 2757 461 2553 
L 499 2135 
C 659 2248 934 2432 1395 2432 
C 1722 2432 1920 2180 1920 1782 
L 1920 1536 
C 896 1536 256 1238 256 726 
C 256 461 416 -64 947 -64 
C 1043 -64 1562 -64 1933 217 
L 1933 -19 
L 2406 -19 
L 2406 1791 
z
M 1920 816 
C 1920 701 1920 548 1728 434 
C 1562 325 1350 325 1261 325 
C 941 325 723 511 723 744 
C 723 1211 1722 1211 1920 1211 
L 1920 816 
z
" id="CMSS17-61" transform="scale(0.015625)"/>
      <path d="M 954 4416 
L 480 4416 
L 480 -13 
L 966 -13 
L 966 274 
C 1210 38 1504 -64 1766 -64 
C 2381 -64 2880 549 2880 1352 
C 2880 2086 2496 2756 1926 2756 
C 1523 2756 1165 2591 954 2419 
L 954 4416 
z
M 966 2046 
C 1107 2222 1306 2368 1587 2368 
C 1965 2368 2394 2097 2394 1352 
C 2394 558 1882 325 1530 325 
C 1402 325 1267 356 1139 464 
C 966 615 966 709 966 797 
L 966 2046 
z
" id="CMSS17-62" transform="scale(0.015625)"/>
      <path d="M 2829 1356 
C 2829 2176 2221 2816 1504 2816 
C 768 2816 173 2157 173 1356 
C 173 544 787 -64 1498 -64 
C 2227 -64 2829 563 2829 1356 
z
M 1504 337 
C 1050 337 659 709 659 1408 
C 659 2151 1114 2427 1498 2427 
C 1914 2427 2342 2126 2342 1408 
C 2342 683 1926 337 1504 337 
z
" id="CMSS17-6f" transform="scale(0.015625)"/>
      <path d="M 4288 1877 
C 4288 2308 4179 2816 3462 2816 
C 2982 2816 2694 2516 2566 2331 
C 2451 2670 2182 2816 1798 2816 
C 1363 2816 1088 2568 941 2389 
L 941 2758 
L 474 2758 
L 474 0 
L 960 0 
L 960 1559 
C 960 1939 1101 2428 1555 2428 
C 2138 2428 2138 2016 2138 1829 
L 2138 0 
L 2624 0 
L 2624 1559 
C 2624 1939 2765 2428 3219 2428 
C 3802 2428 3802 2016 3802 1829 
L 3802 0 
L 4288 0 
L 4288 1877 
z
" id="CMSS17-6d" transform="scale(0.015625)"/>
      <path d="M 2637 4545 
C 2669 4627 2669 4640 2669 4653 
C 2669 4729 2611 4768 2560 4768 
C 2483 4768 2458 4717 2432 4640 
L 365 -1377 
C 333 -1460 333 -1473 333 -1486 
C 333 -1562 390 -1600 442 -1600 
C 518 -1600 544 -1549 570 -1473 
L 2637 4545 
z
" id="CMSS17-2f" transform="scale(0.015625)"/>
      <path d="M 2522 2109 
L 2534 2115 
C 3533 2459 3539 3147 3539 3268 
C 3539 3873 2925 4453 2003 4453 
L 570 4453 
L 570 32 
L 1094 32 
L 1094 2048 
L 2035 2048 
L 3168 32 
L 3706 32 
L 2522 2109 
z
M 1094 2437 
L 1094 4096 
L 1933 4096 
C 2746 4096 3034 3637 3034 3267 
C 3034 2922 2778 2437 1933 2437 
L 1094 2437 
z
" id="CMSS17-52" transform="scale(0.015625)"/>
      <path d="M 3194 2371 
L 2886 1473 
C 2835 1307 2662 791 2624 587 
L 2618 587 
C 2598 715 2560 849 2458 1174 
C 2400 1365 2336 1562 2272 1741 
L 1325 4416 
L 576 4416 
L 576 0 
L 1075 0 
L 1075 3900 
L 1082 3900 
C 1082 3894 1139 3613 1530 2499 
L 2374 96 
L 2848 96 
L 3610 2231 
C 3661 2378 3821 2843 3891 3066 
C 3955 3257 4115 3728 4154 3913 
L 4160 3913 
L 4160 0 
L 4666 0 
L 4666 4416 
L 3923 4416 
L 3194 2371 
z
" id="CMSS17-4d" transform="scale(0.015625)"/>
      <path d="M 2848 2808 
C 2483 2808 2170 2738 1914 2617 
C 1702 2777 1485 2808 1338 2808 
C 781 2808 358 2349 358 1814 
C 358 1468 550 1207 563 1195 
C 448 1035 384 863 384 672 
C 384 448 474 289 544 200 
C 211 -3 166 -314 166 -435 
C 166 -898 749 -1280 1498 -1280 
C 2253 -1280 2835 -898 2835 -428 
C 2835 448 1856 448 1587 448 
L 1069 448 
C 973 448 717 448 717 791 
C 717 921 774 1004 781 1010 
C 877 940 1075 832 1338 832 
C 1869 832 2310 1278 2310 1827 
C 2310 2132 2170 2355 2112 2432 
L 2131 2432 
C 2150 2432 2419 2432 2515 2432 
C 2720 2432 2739 2429 2918 2419 
L 2848 2808 
z
M 1338 1182 
C 1120 1182 813 1315 813 1823 
C 813 2375 1165 2464 1331 2464 
C 1549 2464 1856 2331 1856 1823 
C 1856 1271 1504 1182 1338 1182 
z
M 1581 -10 
C 1734 -10 2381 -10 2381 -442 
C 2381 -714 1984 -929 1504 -929 
C 1018 -929 621 -720 621 -435 
C 621 -403 621 -10 1062 -10 
L 1581 -10 
z
" id="CMSS17-67" transform="scale(0.015625)"/>
      <path d="M 2618 1891 
C 2618 2292 2522 2820 1798 2820 
C 1395 2820 1133 2623 947 2407 
L 947 4448 
L 474 4448 
L 474 32 
L 960 32 
L 960 1573 
C 960 1973 1114 2432 1549 2432 
C 2112 2432 2131 2056 2131 1839 
L 2131 32 
L 2618 32 
L 2618 1891 
z
" id="CMSS17-68" transform="scale(0.015625)"/>
     </defs>
     <use transform="scale(0.996264)" xlink:href="#CMSS17-49"/>
     <use transform="translate(25.783926 0)scale(0.996264)" xlink:href="#CMSS17-6e"/>
     <use transform="translate(73.988869 0)scale(0.996264)" xlink:href="#CMSS17-73"/>
     <use transform="translate(109.902411 0)scale(0.996264)" xlink:href="#CMSS17-70"/>
     <use transform="translate(158.107354 0)scale(0.996264)" xlink:href="#CMSS17-69"/>
     <use transform="translate(180.288077 0)scale(0.996264)" xlink:href="#CMSS17-72"/>
     <use transform="translate(212.197849 0)scale(0.996264)" xlink:href="#CMSS17-65"/>
     <use transform="translate(253.836671 0)scale(0.996264)" xlink:href="#CMSS17-64"/>
     <use transform="translate(333.270727 0)scale(0.996264)" xlink:href="#CMSS17-42"/>
     <use transform="translate(395.608768 0)scale(0.996264)" xlink:href="#CMSS17-79"/>
     <use transform="translate(438.608909 0)scale(0.996264)" xlink:href="#CMSS17-3a"/>
     <use transform="translate(506.271921 0)scale(0.996264)" xlink:href="#CMSS17-53"/>
     <use transform="translate(558.320437 0)scale(0.996264)" xlink:href="#CMSS17-74"/>
     <use transform="translate(592.152004 0)scale(0.996264)" xlink:href="#CMSS17-61"/>
     <use transform="translate(637.073924 0)scale(0.996264)" xlink:href="#CMSS17-74"/>
     <use transform="translate(670.905491 0)scale(0.996264)" xlink:href="#CMSS17-73"/>
     <use transform="translate(706.819033 0)scale(0.996264)" xlink:href="#CMSS17-62"/>
     <use transform="translate(757.626415 0)scale(0.996264)" xlink:href="#CMSS17-6f"/>
     <use transform="translate(804.470039 0)scale(0.996264)" xlink:href="#CMSS17-6d"/>
     <use transform="translate(878.699293 0)scale(0.996264)" xlink:href="#CMSS17-62"/>
     <use transform="translate(958.133349 0)scale(0.996264)" xlink:href="#CMSS17-2f"/>
     <use transform="translate(1036.206085 0)scale(0.996264)" xlink:href="#CMSS17-52"/>
     <use transform="translate(1096.62224 0)scale(0.996264)" xlink:href="#CMSS17-61"/>
     <use transform="translate(1141.544161 0)scale(0.996264)" xlink:href="#CMSS17-6d"/>
     <use transform="translate(1215.773415 0)scale(0.996264)" xlink:href="#CMSS17-69"/>
     <use transform="translate(1269.183251 0)scale(0.996264)" xlink:href="#CMSS17-4d"/>
     <use transform="translate(1350.859281 0)scale(0.996264)" xlink:href="#CMSS17-6f"/>
     <use transform="translate(1397.702904 0)scale(0.996264)" xlink:href="#CMSS17-67"/>
     <use transform="translate(1444.546528 0)scale(0.996264)" xlink:href="#CMSS17-68"/>
     <use transform="translate(1492.751471 0)scale(0.996264)" xlink:href="#CMSS17-61"/>
     <use transform="translate(1537.673392 0)scale(0.996264)" xlink:href="#CMSS17-64"/>
     <use transform="translate(1585.878335 0)scale(0.996264)" xlink:href="#CMSS17-61"/>
     <use transform="translate(1630.800255 0)scale(0.996264)" xlink:href="#CMSS17-6d"/>
    </g>
   </g>
  </g>
 </g>
 <defs>
  <clipPath id="p3156a13cd1">
   <rect height="554.4" width="508.2" x="483.9" y="86.4"/>
  </clipPath>
  <clipPath id="pe041fd6ae6">
   <path d="M 738 277.45086 
L 941.103285 375.15 
L 738 475.146435 
L 621.9225 375.15 
z
"/>
  </clipPath>
 </defs>
</svg>
